<svg xmlns="http://www.w3.org/2000/svg" viewBox="-4084.413 -1950.593 68.832 68.832">
  <defs>
    <style>
      .cls-1 {
        fill: #697769;
      }
    </style>
  </defs>
  <path id="Union_15" data-name="Union 15" class="cls-1" d="M-1389.855,13.41l-20.4-20.4-20.4,20.4a2.308,2.308,0,0,1-3.263,0,2.308,2.308,0,0,1,0-3.263l20.4-20.4-20.4-20.4a2.308,2.308,0,0,1,0-3.263,2.308,2.308,0,0,1,3.263,0l20.4,20.4,20.4-20.4a2.308,2.308,0,0,1,3.263,0,2.307,2.307,0,0,1,0,3.263l-20.4,20.4,20.4,20.4a2.308,2.308,0,0,1,0,3.263,2.3,2.3,0,0,1-1.632.676A2.3,2.3,0,0,1-1389.855,13.41Z" transform="translate(-3045.551 -2906.127) rotate(-45)"/>
</svg>
